<svg width="29" height="29" viewBox="0 0 29 29" fill="none" xmlns="http://www.w3.org/2000/svg">
<g clip-path="url(#clip0_35212_398)">
<path d="M14.5714 2V27.1429" stroke="white" stroke-width="2" stroke-linecap="round" stroke-linejoin="round"/>
<path d="M20.2857 6.57143H11.7143C10.6534 6.57143 9.63601 6.99286 8.88587 7.743C8.13572 8.49315 7.71429 9.51056 7.71429 10.5714C7.71429 11.6323 8.13572 12.6497 8.88587 13.3999C9.63601 14.15 10.6534 14.5714 11.7143 14.5714H17.4286C18.4894 14.5714 19.5069 14.9929 20.257 15.743C21.0072 16.4932 21.4286 17.5106 21.4286 18.5714C21.4286 19.6323 21.0072 20.6497 20.257 21.3999C19.5069 22.15 18.4894 22.5714 17.4286 22.5714H7.71429" stroke="white" stroke-width="2" stroke-linecap="round" stroke-linejoin="round"/>
</g>
<defs>
<clipPath id="clip0_35212_398">
<rect width="27.4286" height="27.4286" fill="white" transform="translate(0.857147 0.857143)"/>
</clipPath>
</defs>
</svg>
